<svg width="285" height="336" viewBox="0 0 285 336" fill="none" xmlns="http://www.w3.org/2000/svg">
<rect width="285" height="336" rx="10" fill="#FEC85B"/>
<path d="M108.5 21.5L98 229.5L109 230.5L117 13L108.5 21.5Z" fill="#092C2E"/>
<path d="M145 202.5L141 230.5L153.5 229.5L167.5 97L160 93.5L147 195L123 117L145 202.5Z" fill="#092C2E"/>
<path d="M181.5 229.5L211.892 150.281L217 31L227.5 25.5L223.5 115.5L248 52.5L250.5 55L223.5 124.5L218 229.5H208.5L211.528 158.782L185.5 229.5H181.5Z" fill="#092C2E"/>
<path d="M108.5 21.5L98 229.5L109 230.5L117 13L108.5 21.5Z" stroke="#092C2E"/>
<path d="M145 202.5L141 230.5L153.5 229.5L167.5 97L160 93.5L147 195L123 117L145 202.5Z" stroke="#092C2E"/>
<path d="M181.5 229.5L211.892 150.281L217 31L227.5 25.5L223.5 115.5L248 52.5L250.5 55L223.5 124.5L218 229.5H208.5L211.528 158.782L185.5 229.5H181.5Z" stroke="#092C2E"/>
<path d="M52.7079 197.686L56.0337 231L45.6404 229.81L34 72.1642L40.236 68L51.0449 188.763L71 95.9599L52.7079 197.686Z" fill="#092C2E" stroke="#092C2E"/>
<rect y="224" width="285" height="112" rx="6" fill="#092C2E"/>
<path d="M248.897 249.492C248.037 249.16 247.128 248.994 246.213 249C243.253 249 241.163 250.578 241.148 252.843C241.13 254.507 242.634 255.444 243.771 256C244.938 256.572 245.329 256.932 245.325 257.443C245.318 258.22 244.393 258.573 243.533 258.573C242.351 258.573 241.705 258.398 240.712 257.962L240.344 257.78L239.924 260.387C240.643 260.704 241.94 260.977 243.279 261C246.426 261 248.482 259.432 248.507 257.022C248.532 255.693 247.719 254.689 246.006 253.859C244.964 253.321 244.319 252.96 244.319 252.414C244.319 251.931 244.872 251.414 246.028 251.414C246.797 251.394 247.562 251.547 248.272 251.862L248.549 251.993L248.969 249.474L248.897 249.492ZM256.577 249.212H254.265C253.545 249.212 253.003 249.421 252.689 250.177L248.242 260.838H251.388L252.017 259.089L255.857 259.093C255.948 259.502 256.225 260.838 256.225 260.838H259L256.577 249.212ZM236.892 249.114H239.891L238.015 260.746H235.02L236.892 249.11V249.114ZM229.281 255.525L229.591 257.14L232.521 249.212H235.697L230.979 260.822H227.81L225.22 250.991C225.178 250.829 225.08 250.69 224.945 250.601C224.011 250.091 223.022 249.704 222 249.448L222.041 249.204H226.867C227.521 249.231 228.049 249.448 228.224 250.188L229.279 255.531V255.525H229.281ZM252.877 256.711L254.072 253.458C254.058 253.493 254.318 252.786 254.47 252.35L254.675 253.354L255.369 256.709H252.876V256.711H252.877Z" fill="white"/>
<path d="M26.45 257.675C26.45 256.625 26.66 255.69 27.08 254.87C27.51 254.05 28.12 253.415 28.91 252.965C29.7 252.505 30.63 252.275 31.7 252.275C32.62 252.275 33.44 252.45 34.16 252.8C34.89 253.14 35.48 253.625 35.93 254.255C36.39 254.885 36.695 255.62 36.845 256.46H33.335C33.175 256.11 32.945 255.84 32.645 255.65C32.355 255.45 32.02 255.35 31.64 255.35C31.08 255.35 30.635 255.56 30.305 255.98C29.985 256.4 29.825 256.965 29.825 257.675C29.825 258.385 29.985 258.95 30.305 259.37C30.635 259.79 31.08 260 31.64 260C32.02 260 32.355 259.905 32.645 259.715C32.945 259.515 33.175 259.24 33.335 258.89H36.845C36.695 259.73 36.39 260.465 35.93 261.095C35.48 261.725 34.89 262.215 34.16 262.565C33.44 262.905 32.62 263.075 31.7 263.075C30.63 263.075 29.7 262.85 28.91 262.4C28.12 261.94 27.51 261.3 27.08 260.48C26.66 259.66 26.45 258.725 26.45 257.675ZM41.3739 256.1C41.7139 255.61 42.1289 255.22 42.6189 254.93C43.1089 254.63 43.6189 254.48 44.1489 254.48V258.035H43.2039C42.5739 258.035 42.1089 258.145 41.8089 258.365C41.5189 258.585 41.3739 258.975 41.3739 259.535V263H38.0439V254.54H41.3739V256.1ZM53.2359 258.695C53.2359 258.925 53.2209 259.145 53.1909 259.355H47.8359C47.8859 260.085 48.1909 260.45 48.7509 260.45C49.1109 260.45 49.3709 260.285 49.5309 259.955H53.0559C52.9359 260.555 52.6809 261.095 52.2909 261.575C51.9109 262.045 51.4259 262.42 50.8359 262.7C50.2559 262.97 49.6159 263.105 48.9159 263.105C48.0759 263.105 47.3259 262.93 46.6659 262.58C46.0159 262.23 45.5059 261.73 45.1359 261.08C44.7759 260.42 44.5959 259.65 44.5959 258.77C44.5959 257.89 44.7759 257.125 45.1359 256.475C45.5059 255.815 46.0159 255.31 46.6659 254.96C47.3259 254.61 48.0759 254.435 48.9159 254.435C49.7559 254.435 50.5009 254.61 51.1509 254.96C51.8109 255.3 52.3209 255.79 52.6809 256.43C53.0509 257.07 53.2359 257.825 53.2359 258.695ZM49.8609 257.9C49.8609 257.62 49.7709 257.41 49.5909 257.27C49.4109 257.12 49.1859 257.045 48.9159 257.045C48.3259 257.045 47.9809 257.33 47.8809 257.9H49.8609ZM53.8391 258.77C53.8391 257.88 53.9891 257.11 54.2891 256.46C54.5991 255.8 55.0191 255.3 55.5491 254.96C56.0791 254.61 56.6741 254.435 57.3341 254.435C57.8841 254.435 58.3541 254.55 58.7441 254.78C59.1441 255 59.4491 255.305 59.6591 255.695V251.9H62.9891V263H59.6591V261.845C59.4491 262.235 59.1441 262.545 58.7441 262.775C58.3541 262.995 57.8841 263.105 57.3341 263.105C56.6741 263.105 56.0791 262.935 55.5491 262.595C55.0191 262.245 54.5991 261.745 54.2891 261.095C53.9891 260.435 53.8391 259.66 53.8391 258.77ZM59.6741 258.77C59.6741 258.32 59.5591 257.97 59.3291 257.72C59.0991 257.47 58.8041 257.345 58.4441 257.345C58.0841 257.345 57.7891 257.47 57.5591 257.72C57.3291 257.97 57.2141 258.32 57.2141 258.77C57.2141 259.22 57.3291 259.57 57.5591 259.82C57.7891 260.07 58.0841 260.195 58.4441 260.195C58.8041 260.195 59.0991 260.07 59.3291 259.82C59.5591 259.57 59.6741 259.22 59.6741 258.77ZM66.1644 253.865C65.5844 253.865 65.1194 253.71 64.7694 253.4C64.4194 253.09 64.2444 252.7 64.2444 252.23C64.2444 251.75 64.4194 251.355 64.7694 251.045C65.1194 250.725 65.5844 250.565 66.1644 250.565C66.7344 250.565 67.1944 250.725 67.5444 251.045C67.8944 251.355 68.0694 251.75 68.0694 252.23C68.0694 252.7 67.8944 253.09 67.5444 253.4C67.1944 253.71 66.7344 253.865 66.1644 253.865ZM67.8144 254.54V263H64.4844V254.54H67.8144ZM74.5834 260.165V263H73.3234C71.0034 263 69.8434 261.845 69.8434 259.535V257.315H68.7934V254.54H69.8434V252.5H73.1734V254.54H74.5534V257.315H73.1734V259.595C73.1734 259.795 73.2184 259.94 73.3084 260.03C73.4084 260.12 73.5684 260.165 73.7884 260.165H74.5834ZM78.1004 257.675C78.1004 256.625 78.3104 255.69 78.7304 254.87C79.1604 254.05 79.7704 253.415 80.5604 252.965C81.3504 252.505 82.2804 252.275 83.3504 252.275C84.2704 252.275 85.0904 252.45 85.8104 252.8C86.5404 253.14 87.1304 253.625 87.5804 254.255C88.0404 254.885 88.3454 255.62 88.4954 256.46H84.9854C84.8254 256.11 84.5954 255.84 84.2954 255.65C84.0054 255.45 83.6704 255.35 83.2904 255.35C82.7304 255.35 82.2854 255.56 81.9554 255.98C81.6354 256.4 81.4754 256.965 81.4754 257.675C81.4754 258.385 81.6354 258.95 81.9554 259.37C82.2854 259.79 82.7304 260 83.2904 260C83.6704 260 84.0054 259.905 84.2954 259.715C84.5954 259.515 84.8254 259.24 84.9854 258.89H88.4954C88.3454 259.73 88.0404 260.465 87.5804 261.095C87.1304 261.725 86.5404 262.215 85.8104 262.565C85.0904 262.905 84.2704 263.075 83.3504 263.075C82.2804 263.075 81.3504 262.85 80.5604 262.4C79.7704 261.94 79.1604 261.3 78.7304 260.48C78.3104 259.66 78.1004 258.725 78.1004 257.675ZM89.2443 258.77C89.2443 257.88 89.3943 257.11 89.6943 256.46C90.0043 255.8 90.4243 255.3 90.9543 254.96C91.4843 254.61 92.0793 254.435 92.7393 254.435C93.2893 254.435 93.7643 254.55 94.1643 254.78C94.5643 255 94.8693 255.305 95.0793 255.695V254.54H98.3943V263H95.0793V261.845C94.8693 262.235 94.5643 262.545 94.1643 262.775C93.7643 262.995 93.2893 263.105 92.7393 263.105C92.0793 263.105 91.4843 262.935 90.9543 262.595C90.4243 262.245 90.0043 261.745 89.6943 261.095C89.3943 260.435 89.2443 259.66 89.2443 258.77ZM95.0793 258.77C95.0793 258.32 94.9643 257.97 94.7343 257.72C94.5043 257.47 94.2093 257.345 93.8493 257.345C93.4893 257.345 93.1943 257.47 92.9643 257.72C92.7343 257.97 92.6193 258.32 92.6193 258.77C92.6193 259.22 92.7343 259.57 92.9643 259.82C93.1943 260.07 93.4893 260.195 93.8493 260.195C94.2093 260.195 94.5043 260.07 94.7343 259.82C94.9643 259.57 95.0793 259.22 95.0793 258.77ZM103.22 256.1C103.56 255.61 103.975 255.22 104.465 254.93C104.955 254.63 105.465 254.48 105.995 254.48V258.035H105.05C104.42 258.035 103.955 258.145 103.655 258.365C103.365 258.585 103.22 258.975 103.22 259.535V263H99.8896V254.54H103.22V256.1ZM106.442 258.77C106.442 257.88 106.592 257.11 106.892 256.46C107.202 255.8 107.622 255.3 108.152 254.96C108.682 254.61 109.277 254.435 109.937 254.435C110.487 254.435 110.957 254.55 111.347 254.78C111.747 255 112.052 255.305 112.262 255.695V251.9H115.592V263H112.262V261.845C112.052 262.235 111.747 262.545 111.347 262.775C110.957 262.995 110.487 263.105 109.937 263.105C109.277 263.105 108.682 262.935 108.152 262.595C107.622 262.245 107.202 261.745 106.892 261.095C106.592 260.435 106.442 259.66 106.442 258.77ZM112.277 258.77C112.277 258.32 112.162 257.97 111.932 257.72C111.702 257.47 111.407 257.345 111.047 257.345C110.687 257.345 110.392 257.47 110.162 257.72C109.932 257.97 109.817 258.32 109.817 258.77C109.817 259.22 109.932 259.57 110.162 259.82C110.392 260.07 110.687 260.195 111.047 260.195C111.407 260.195 111.702 260.07 111.932 259.82C112.162 259.57 112.277 259.22 112.277 258.77Z" fill="white"/>
<path d="M33.515 309L31.565 306.24L29.945 309H26.15L29.645 303.525L26 298.38H29.945L31.82 301.035L33.38 298.38H37.175L33.74 303.75L37.46 309H33.515ZM44.9701 309L43.0201 306.24L41.4001 309H37.6051L41.1001 303.525L37.4551 298.38H41.4001L43.2751 301.035L44.8351 298.38H48.6301L45.1951 303.75L48.9151 309H44.9701ZM56.4252 309L54.4752 306.24L52.8552 309H49.0602L52.5552 303.525L48.9102 298.38H52.8552L54.7302 301.035L56.2902 298.38H60.0852L56.6502 303.75L60.3702 309H56.4252ZM67.8802 309L65.9302 306.24L64.3102 309H60.5152L64.0102 303.525L60.3652 298.38H64.3102L66.1852 301.035L67.7452 298.38H71.5402L68.1052 303.75L71.8252 309H67.8802ZM97.1771 309L95.2271 306.24L93.6071 309H89.8121L93.3071 303.525L89.6621 298.38H93.6071L95.4821 301.035L97.0421 298.38H100.837L97.4021 303.75L101.122 309H97.1771ZM108.632 309L106.682 306.24L105.062 309H101.267L104.762 303.525L101.117 298.38H105.062L106.937 301.035L108.497 298.38H112.292L108.857 303.75L112.577 309H108.632ZM120.087 309L118.137 306.24L116.517 309H112.722L116.217 303.525L112.572 298.38H116.517L118.392 301.035L119.952 298.38H123.747L120.312 303.75L124.032 309H120.087ZM131.542 309L129.592 306.24L127.972 309H124.177L127.672 303.525L124.027 298.38H127.972L129.847 301.035L131.407 298.38H135.202L131.767 303.75L135.487 309H131.542ZM158.29 309L156.34 306.24L154.72 309H150.925L154.42 303.525L150.775 298.38H154.72L156.595 301.035L158.155 298.38H161.95L158.515 303.75L162.235 309H158.29ZM169.745 309L167.795 306.24L166.175 309H162.38L165.875 303.525L162.23 298.38H166.175L168.05 301.035L169.61 298.38H173.405L169.97 303.75L173.69 309H169.745ZM181.201 309L179.251 306.24L177.631 309H173.836L177.331 303.525L173.686 298.38H177.631L179.506 301.035L181.066 298.38H184.861L181.426 303.75L185.146 309H181.201ZM192.656 309L190.706 306.24L189.086 309H185.291L188.786 303.525L185.141 298.38H189.086L190.961 301.035L192.521 298.38H196.316L192.881 303.75L196.601 309H192.656ZM214.588 301.155V298.035H219.673V309H216.178V301.155H214.588ZM225.904 301.365C225.844 301.065 225.754 300.845 225.634 300.705C225.524 300.565 225.349 300.495 225.109 300.495C224.729 300.495 224.474 300.69 224.344 301.08C224.224 301.46 224.164 302.055 224.164 302.865C224.344 302.585 224.604 302.365 224.944 302.205C225.284 302.045 225.669 301.965 226.099 301.965C227.059 301.965 227.824 302.26 228.394 302.85C228.974 303.44 229.264 304.295 229.264 305.415C229.264 306.165 229.104 306.82 228.784 307.38C228.474 307.93 228.029 308.355 227.449 308.655C226.869 308.955 226.184 309.105 225.394 309.105C223.824 309.105 222.734 308.625 222.124 307.665C221.514 306.695 221.209 305.34 221.209 303.6C221.209 302.24 221.349 301.14 221.629 300.3C221.909 299.46 222.349 298.84 222.949 298.44C223.559 298.04 224.349 297.84 225.319 297.84C226.509 297.84 227.404 298.18 228.004 298.86C228.614 299.54 228.949 300.375 229.009 301.365H225.904ZM225.274 304.515C225.004 304.515 224.789 304.59 224.629 304.74C224.469 304.89 224.389 305.1 224.389 305.37C224.389 305.67 224.464 305.895 224.614 306.045C224.774 306.185 224.994 306.255 225.274 306.255C225.554 306.255 225.769 306.185 225.919 306.045C226.079 305.895 226.159 305.67 226.159 305.37C226.159 305.1 226.079 304.89 225.919 304.74C225.759 304.59 225.544 304.515 225.274 304.515ZM238.681 300.96H234.331V302.22C234.521 302.05 234.766 301.915 235.066 301.815C235.376 301.715 235.721 301.665 236.101 301.665C236.781 301.665 237.356 301.825 237.826 302.145C238.296 302.465 238.646 302.895 238.876 303.435C239.106 303.965 239.221 304.555 239.221 305.205C239.221 306.405 238.881 307.34 238.201 308.01C237.531 308.67 236.606 309 235.426 309C234.566 309 233.821 308.85 233.191 308.55C232.571 308.25 232.096 307.835 231.766 307.305C231.446 306.775 231.296 306.17 231.316 305.49H234.556C234.556 305.65 234.611 305.8 234.721 305.94C234.831 306.08 235.011 306.15 235.261 306.15C235.511 306.15 235.696 306.06 235.816 305.88C235.936 305.7 235.996 305.455 235.996 305.145C235.996 304.855 235.926 304.635 235.786 304.485C235.656 304.335 235.466 304.26 235.216 304.26C235.006 304.26 234.846 304.31 234.736 304.41C234.626 304.51 234.571 304.625 234.571 304.755H231.331V298.035H238.681V300.96ZM240.603 307.35V304.575L245.073 298.2H248.658V304.47H249.738V307.35H248.658V309H245.298V307.35H240.603ZM245.568 301.995L243.948 304.47H245.568V301.995Z" fill="white"/>
</svg>
