<svg width="129" height="43" viewBox="0 0 129 43" fill="none" xmlns="http://www.w3.org/2000/svg">
<path d="M60.16 5C58.44 5 56.38 5 54.66 5V19C56.38 19 58.44 19 60.16 19C65.06 19 67.22 15.42 67.16 11.88C67.1 8.42 64.96 5 60.16 5ZM57.28 7.5H60.16C63.2 7.5 64.48 9.68 64.54 11.86C64.6 14.14 63.34 16.46 60.16 16.46H57.28V7.5ZM78.8623 14.94C79.2423 10.88 77.1823 8.84 73.8823 8.84C70.6823 8.84 68.6423 11 68.6423 14C68.6423 17.16 70.6623 19.26 74.0623 19.26C75.5623 19.26 77.2623 18.74 78.3023 17.66L76.7423 16.12C76.1823 16.7 75.0023 17.04 74.1023 17.04C72.3823 17.04 71.3223 16.16 71.1623 14.94H78.8623ZM71.2023 12.92C71.5623 11.64 72.6423 11 73.9623 11C75.3623 11 76.3623 11.64 76.5223 12.92H71.2023ZM83.2834 9.1V19H80.8434V9.1H83.2834ZM80.6234 6.36C80.6234 8.26 83.5034 8.26 83.5034 6.36C83.5034 4.46 80.6234 4.46 80.6234 6.36ZM93.4816 10.16C92.3416 9.16 91.1816 8.86 89.6416 8.86C87.8416 8.86 85.4816 9.66 85.4816 11.94C85.4816 14.18 87.7016 14.86 89.5616 15C90.9616 15.08 91.5216 15.46 91.5216 16.14C91.5216 16.86 90.6616 17.24 89.7416 17.22C88.6416 17.2 87.2816 16.82 86.3416 15.84L85.1416 17.58C86.5816 19.08 88.1416 19.34 89.7016 19.34C92.5216 19.34 93.9416 17.84 93.9416 16.1C93.9416 13.48 91.5816 13.06 89.7216 12.94C88.4616 12.86 87.8816 12.5 87.8816 11.86C87.8816 11.24 88.5216 10.88 89.6816 10.88C90.6216 10.88 91.4216 11.1 92.1216 11.76L93.4816 10.16ZM95.703 9.14V14.32C95.703 17.38 97.423 19.16 99.783 19.16C101.163 19.16 102.103 18.68 103.123 17.68L103.283 19.02H105.463V9.14H103.043V14.18C103.043 15.68 102.023 16.94 100.523 16.94C98.963 16.94 98.143 15.8 98.143 14.3V9.14H95.703ZM108.109 5.02V19H110.549V14.54L114.409 19H117.349V18.82L112.769 13.78L116.789 9.28V9.14H113.869L110.549 13.1V5.02H108.109ZM122.609 8.94C119.469 8.94 117.509 11.26 117.509 14.08C117.509 16.92 119.429 19.22 122.629 19.22C125.829 19.22 127.769 16.92 127.769 14.08C127.769 11.26 125.749 8.94 122.609 8.94ZM122.629 11.16C124.269 11.16 125.309 12.6 125.309 14.08C125.309 15.58 124.409 16.98 122.629 16.98C120.849 16.98 119.949 15.58 119.949 14.08C119.949 12.6 120.869 11.16 122.629 11.16Z" fill="white"/>
<path fill-rule="evenodd" clip-rule="evenodd" d="M32.8642 7.71861L4.07772e-07 26.6927C5.46463 35.1177 16.635 37.8731 25.4321 32.7941C34.2291 27.7151 37.4281 16.6636 32.8642 7.71861Z" fill="#FEC85B"/>
<circle cx="7.5" cy="5.5" r="5.5" fill="white"/>
</svg>
