<svg width="501" height="423" viewBox="0 0 501 423" fill="none" xmlns="http://www.w3.org/2000/svg">
<path d="M107.918 403.872C107.918 404.671 106.681 405.057 106.214 404.39C106.068 404.173 105.911 403.97 105.754 403.76C105.62 403.753 105.489 403.72 105.368 403.662C105.248 403.603 105.14 403.522 105.052 403.421C104.711 403.082 104.371 402.744 104.03 402.405C99.7033 408.221 93.5389 412.426 86.5234 414.346C80.0484 416.084 71.6207 415.969 65.0707 412.9C61.1619 416.928 55.791 419.594 50.4168 421.067C42.2378 423.313 32.13 423.398 25.8118 416.904L25.6857 416.769C24.0499 417.08 22.4823 417.297 21.1192 417.446C13.0561 418.412 3.29588 416.603 0.0515659 408.154C-0.265368 407.327 0.968293 406.741 1.31249 407.571C4.87374 416.145 15.1247 416.718 23.0617 415.424L24.4248 415.197C20.9556 410.115 21.0169 402.645 26.5445 398.878C31.5371 395.47 39.8557 398.462 40.1386 404.905C40.4351 411.68 34.1407 414.763 27.9656 416.264C30.4398 418.341 33.4375 419.706 36.6353 420.214C45.2845 421.569 56.6123 418.605 63.2509 411.941C61.5728 410.968 60.0659 409.729 58.79 408.272C54.2984 403.086 55.0652 392.886 63.4418 392.462C71.9376 392.032 71.3617 402.74 68.6831 407.896C68.0878 409.031 67.3885 410.108 66.5941 411.115C68.2051 411.796 69.878 412.322 71.59 412.686C83.3915 415.186 95.3669 410.315 102.329 400.979C101.402 400.274 100.428 399.633 99.4121 399.061C99.3103 399.005 99.222 398.927 99.153 398.834C98.9952 398.828 98.8437 398.77 98.7213 398.671C98.5988 398.572 98.512 398.436 98.4736 398.283C98.4353 398.131 98.4476 397.97 98.5086 397.825C98.5696 397.68 98.6761 397.559 98.8123 397.479C100.605 396.463 102.421 395.497 104.265 394.552L104.35 394.464C104.545 394.257 104.815 394.135 105.1 394.125C105.627 393.854 106.156 393.584 106.688 393.316C107.369 392.977 108.007 393.573 108 394.234C107.976 397.449 107.939 400.66 107.918 403.872ZM34.4406 411.87C37.7428 409.566 39.9887 404.739 36.7375 401.433C31.6836 396.277 24.4453 400.999 23.9477 407.232C23.8427 408.607 24.018 409.988 24.463 411.294C24.9081 412.6 25.6137 413.803 26.5377 414.831C29.339 414.279 32.1437 413.472 34.4406 411.87ZM68.0867 404.051C69.0273 400.86 69.0443 395.355 64.7606 394.596C61.5606 394.031 58.6264 396.449 58.0948 399.519C57.2121 404.519 60.6098 408.052 64.7913 410.268C66.2875 408.429 67.407 406.317 68.0867 404.051V404.051Z" fill="#FEC85B"/>
<path fill-rule="evenodd" clip-rule="evenodd" d="M464.127 82.8846C467.794 83.3205 471.417 83.7839 475.094 84.1127C475.885 84.1863 476.579 83.6077 476.65 82.8218C476.724 82.031 476.14 81.3335 475.354 81.2628C471.698 80.933 468.105 80.4745 464.464 80.0406C463.677 79.9493 462.966 80.5112 462.873 81.2903C462.781 82.0772 463.34 82.7933 464.127 82.8846Z" fill="white"/>
<path fill-rule="evenodd" clip-rule="evenodd" d="M452.11 54.8136C461.753 48.2474 471.059 41.198 480.556 34.4305C481.201 33.9688 481.349 33.0757 480.892 32.4342C480.43 31.7898 479.54 31.6367 478.891 32.0955C469.413 38.8542 460.126 45.8948 450.499 52.4442C449.842 52.8923 449.676 53.7813 450.119 54.4346C450.567 55.0908 451.456 55.2567 452.11 54.8136Z" fill="white"/>
<path fill-rule="evenodd" clip-rule="evenodd" d="M417.532 30.8644C421.201 21.7091 424.619 12.437 428.389 3.323C428.687 2.59305 428.34 1.75718 427.613 1.45466C426.881 1.14919 426.042 1.50092 425.74 2.22792C421.968 11.3547 418.544 20.6367 414.875 29.8047C414.582 30.5376 414.937 31.3716 415.67 31.6643C416.407 31.96 417.237 31.6022 417.532 30.8644Z" fill="white"/>
<rect x="108" y="56.4496" width="318" height="313" rx="16" fill="url(#paint0_linear_153_118)"/>
<defs>
<linearGradient id="paint0_linear_153_118" x1="90.5" y1="7.44958" x2="669" y2="644.95" gradientUnits="userSpaceOnUse">
<stop stop-color="#FEC85B"/>
<stop offset="0.447917" stop-color="#DB7747"/>
<stop offset="0.826969" stop-color="#1CBD00"/>
</linearGradient>
</defs>
</svg>
