<svg width="17" height="27" viewBox="0 0 17 27" fill="none" xmlns="http://www.w3.org/2000/svg">
<path d="M8.5 5.0625C8.72543 5.0625 8.94164 5.15139 9.10104 5.30963C9.26045 5.46786 9.35 5.68247 9.35 5.90625V9.28125C9.35 9.50503 9.26045 9.71964 9.10104 9.87787C8.94164 10.0361 8.72543 10.125 8.5 10.125C8.27457 10.125 8.05837 10.0361 7.89896 9.87787C7.73955 9.71964 7.65 9.50503 7.65 9.28125V5.90625C7.65 5.68247 7.73955 5.46786 7.89896 5.30963C8.05837 5.15139 8.27457 5.0625 8.5 5.0625ZM15.3 18.5625C15.3 20.3527 14.5836 22.0696 13.3083 23.3355C12.0331 24.6013 10.3035 25.3125 8.5 25.3125C6.69653 25.3125 4.96692 24.6013 3.69167 23.3355C2.41643 22.0696 1.7 20.3527 1.7 18.5625V8.4375C1.7 6.64729 2.41643 4.9304 3.69167 3.66453C4.96692 2.39866 6.69653 1.6875 8.5 1.6875C10.3035 1.6875 12.0331 2.39866 13.3083 3.66453C14.5836 4.9304 15.3 6.64729 15.3 8.4375V18.5625ZM8.5 0C6.24566 0 4.08365 0.888948 2.48959 2.47129C0.895533 4.05362 0 6.19974 0 8.4375V18.5625C0 20.8003 0.895533 22.9464 2.48959 24.5287C4.08365 26.1111 6.24566 27 8.5 27C10.7543 27 12.9163 26.1111 14.5104 24.5287C16.1045 22.9464 17 20.8003 17 18.5625V8.4375C17 6.19974 16.1045 4.05362 14.5104 2.47129C12.9163 0.888948 10.7543 0 8.5 0V0Z" fill="#00966B"/>
</svg>
